<?xml version="1.0" encoding="UTF-8"?>
<!DOCTYPE svg PUBLIC "-//W3C//DTD SVG 1.1//EN" "http://www.w3.org/Graphics/SVG/1.1/DTD/svg11.dtd">
<svg xmlns="http://www.w3.org/2000/svg" version="1.1" width="159px" height="49px" style="shape-rendering:geometricPrecision; text-rendering:geometricPrecision; image-rendering:optimizeQuality; fill-rule:evenodd; clip-rule:evenodd" xmlns:xlink="http://www.w3.org/1999/xlink">
<g><path style="opacity:0.834" fill="#6c8d3a" d="M 89.5,-0.5 C 90.1667,-0.5 90.8333,-0.5 91.5,-0.5C 92.6182,4.86587 93.9515,10.1992 95.5,15.5C 99.1667,17 102.833,18.5 106.5,20C 107.635,20.7494 108.635,20.5827 109.5,19.5C 112.625,17.2056 115.291,14.3722 117.5,11C 119.833,10.3333 122.167,10.3333 124.5,11C 125.126,11.7504 125.626,12.5838 126,13.5C 128.333,9.5 130.667,5.5 133,1.5C 134.265,5.7543 135.098,10.0876 135.5,14.5C 136.833,14.5 138.167,14.5 139.5,14.5C 140.121,9.3945 141.121,4.3945 142.5,-0.5C 143.167,-0.5 143.833,-0.5 144.5,-0.5C 145.341,1.3792 145.675,3.3792 145.5,5.5C 150.116,4.44274 153.449,5.94274 155.5,10C 156.448,10.4828 157.448,10.6495 158.5,10.5C 158.5,11.5 158.5,12.5 158.5,13.5C 158.167,13.5 157.833,13.5 157.5,13.5C 154.509,13.6703 152.509,12.337 151.5,9.5C 150.675,8.61432 149.675,8.28099 148.5,8.5C 147.683,15.9676 146.016,16.301 143.5,9.5C 142.451,12.0795 141.784,14.7462 141.5,17.5C 140.178,17.33 139.011,17.6634 138,18.5C 138.284,22.4045 136.784,23.7379 133.5,22.5C 133.235,18.1467 132.735,13.8134 132,9.5C 129.916,13.3359 127.583,17.0026 125,20.5C 124.027,18.6079 123.36,16.6079 123,14.5C 121.612,13.4464 120.112,13.2797 118.5,14C 115.368,17.5217 112.368,21.0217 109.5,24.5C 105.888,22.633 102.221,20.9663 98.5,19.5C 93.0895,18.923 90.2561,15.923 90,10.5C 89.4743,13.2716 88.6409,15.9382 87.5,18.5C 85.5,15.5 83.5,12.5 81.5,9.5C 78.7169,12.3506 76.3836,12.0172 74.5,8.5C 72.7073,11.2511 71.0406,14.0844 69.5,17C 66.0368,18.0351 63.2035,17.2017 61,14.5C 60.5899,15.9007 60.0899,17.234 59.5,18.5C 58.8303,21.6729 57.6636,24.6729 56,27.5C 55.1779,25.2115 54.5112,22.8782 54,20.5C 53.0853,21.3279 52.4186,22.3279 52,23.5C 51.6667,22.8333 51.3333,22.1667 51,21.5C 49.2145,24.9577 47.8811,28.6244 47,32.5C 45.3005,33.4061 43.4672,33.7394 41.5,33.5C 39.785,29.808 37.285,26.4746 34,23.5C 32.2902,27.2189 29.7902,30.3856 26.5,33C 22.7887,33.8253 19.122,33.6586 15.5,32.5C 15,31.5 14.5,30.5 14,29.5C 12.2845,32.3974 9.78453,33.7307 6.5,33.5C 5.40391,28.8677 3.73724,24.5344 1.5,20.5C 0.30577,18.5156 0.30577,16.5156 1.5,14.5C 4.46024,19.5124 6.96024,24.8457 9,30.5C 10.6837,28.6487 12.5171,26.982 14.5,25.5C 18.8863,31.8013 23.7196,32.1346 29,26.5C 29.9562,23.6229 31.2895,20.9562 33,18.5C 37.1146,22.1045 40.6146,26.1045 43.5,30.5C 44.086,30.2907 44.586,29.9574 45,29.5C 46.5347,23.7295 48.368,18.0628 50.5,12.5C 51.8601,16.3397 53.3601,16.3397 55,12.5C 55.2163,14.3839 55.883,16.0506 57,17.5C 57.9419,14.0073 59.2752,10.674 61,7.5C 62.1853,9.37716 63.1853,11.3772 64,13.5C 65.4936,14.7472 66.9936,14.7472 68.5,13.5C 70.3333,9.83333 72.1667,6.16667 74,2.5C 75.8294,4.15582 77.1628,6.15582 78,8.5C 79.2419,7.12794 80.7419,6.12794 82.5,5.5C 83.604,7.38855 84.9373,9.05522 86.5,10.5C 87.8801,6.93069 88.8801,3.26402 89.5,-0.5 Z"/></g>
<g><path style="opacity:0.102" fill="#77b808" d="M 98.5,19.5 C 97.365,20.4745 96.365,21.6412 95.5,23C 97.259,24.008 98.4257,25.508 99,27.5C 100.363,25.2157 101.863,25.049 103.5,27C 103.167,27.3333 102.833,27.6667 102.5,28C 105.521,28.8494 108.521,29.6827 111.5,30.5C 111.5,31.5 111.5,32.5 111.5,33.5C 109.234,33.1412 107.401,33.8078 106,35.5C 104.605,34.1854 103.605,34.5188 103,36.5C 101.415,35.6243 100.415,34.2909 100,32.5C 98.5886,34.6504 97.7553,36.9837 97.5,39.5C 95.6203,39.7709 94.287,39.1042 93.5,37.5C 93.6107,36.8826 93.944,36.3826 94.5,36C 92.0864,36.8266 90.0864,36.6599 88.5,35.5C 88.9767,34.5224 89.6433,33.6891 90.5,33C 90.1667,32.6667 89.8333,32.3333 89.5,32C 91.2464,31.5291 92.913,30.8624 94.5,30C 92.6992,29.6827 92.3659,29.016 93.5,28C 92.2234,27.8726 91.0567,28.3726 90,29.5C 88.4626,28.9655 86.9626,28.6322 85.5,28.5C 85.0024,29.6034 84.6691,30.6034 84.5,31.5C 82.9984,30.9169 81.6651,30.0836 80.5,29C 81.4491,28.3828 82.2825,28.5494 83,29.5C 83.7494,28.365 83.5827,27.365 82.5,26.5C 80.362,26.6381 78.1953,26.6381 76,26.5C 74.395,27.1007 73.0616,28.1007 72,29.5C 71.3333,27.5 70.6667,25.5 70,23.5C 68.5778,23.4057 67.0778,23.0724 65.5,22.5C 66.6053,21.1076 67.9386,19.941 69.5,19C 66.1338,18.7001 62.8005,18.5334 59.5,18.5C 60.0899,17.234 60.5899,15.9007 61,14.5C 63.2035,17.2017 66.0368,18.0351 69.5,17C 71.0406,14.0844 72.7073,11.2511 74.5,8.5C 76.3836,12.0172 78.7169,12.3506 81.5,9.5C 83.5,12.5 85.5,15.5 87.5,18.5C 88.6409,15.9382 89.4743,13.2716 90,10.5C 90.2561,15.923 93.0895,18.923 98.5,19.5 Z"/></g>
<g><path style="opacity:0.09" fill="#7ab91a" d="M 133.5,22.5 C 133.688,24.1033 133.188,25.4366 132,26.5C 131.508,25.451 131.674,24.451 132.5,23.5C 131.409,22.1124 130.076,21.6124 128.5,22C 129.944,23.7635 130.944,25.7635 131.5,28C 129.905,27.3829 128.572,27.7163 127.5,29C 130.04,31.2047 132.207,33.7047 134,36.5C 134.249,35.376 134.749,34.376 135.5,33.5C 135.911,34.2624 136.077,35.2624 136,36.5C 139.462,36.017 139.962,34.8504 137.5,33C 138.825,33.1484 139.992,32.9817 141,32.5C 141.5,33.6667 142.333,34.5 143.5,35C 142.672,35.9147 141.672,36.5814 140.5,37C 142.286,38.293 143.953,38.793 145.5,38.5C 143.392,39.355 141.226,40.0216 139,40.5C 137.739,40.2409 136.739,39.5742 136,38.5C 135.667,39.1667 135.333,39.8333 135,40.5C 132.931,39.7362 130.764,39.2362 128.5,39C 128.833,38 129.167,37 129.5,36C 125.517,36.2753 125.517,35.2753 129.5,33C 127.213,33.4653 125.047,33.6319 123,33.5C 121.406,31.0182 119.572,30.8515 117.5,33C 118.449,33.6172 119.282,33.4506 120,32.5C 120.903,33.7014 122.069,34.5348 123.5,35C 122.975,35.6924 122.308,36.1924 121.5,36.5C 119.902,36.3903 118.235,36.057 116.5,35.5C 115.713,36.2421 115.047,37.0754 114.5,38C 118.026,37.9544 121.526,37.4544 125,36.5C 125.75,37.1258 126.584,37.6258 127.5,38C 126.549,38.7175 126.383,39.5509 127,40.5C 130.834,41.765 132.001,44.0984 130.5,47.5C 130.5,47.8333 130.5,48.1667 130.5,48.5C 129.5,48.5 128.5,48.5 127.5,48.5C 126.833,47.1667 126.167,47.1667 125.5,48.5C 124.167,48.5 122.833,48.5 121.5,48.5C 120.064,44.9731 117.897,44.6398 115,47.5C 113.293,46.8617 111.46,46.8617 109.5,47.5C 108.833,47.5 108.5,47.8333 108.5,48.5C 108.167,48.5 107.833,48.5 107.5,48.5C 107.167,47.1667 106.833,47.1667 106.5,48.5C 105.5,48.5 104.5,48.5 103.5,48.5C 102.833,47.1667 102.167,47.1667 101.5,48.5C 100.5,48.5 99.5,48.5 98.5,48.5C 98.1667,47.1667 97.8333,47.1667 97.5,48.5C 96.8333,48.5 96.1667,48.5 95.5,48.5C 95.5,47.8333 95.1667,47.5 94.5,47.5C 92.1932,47.2303 90.0265,45.897 88,43.5C 86.9125,45.9316 86.4125,45.5983 86.5,42.5C 85.1779,42.33 84.0113,42.6634 83,43.5C 82.0513,41.9069 80.8846,40.5736 79.5,39.5C 81.6263,38.8745 83.293,37.5411 84.5,35.5C 84.8333,36.1667 85.1667,36.8333 85.5,37.5C 86.1924,36.9747 86.6924,36.3081 87,35.5C 88.7542,37.25 90.9208,37.9167 93.5,37.5C 94.287,39.1042 95.6203,39.7709 97.5,39.5C 97.7553,36.9837 98.5886,34.6504 100,32.5C 100.415,34.2909 101.415,35.6243 103,36.5C 103.605,34.5188 104.605,34.1854 106,35.5C 107.401,33.8078 109.234,33.1412 111.5,33.5C 111.5,32.5 111.5,31.5 111.5,30.5C 108.521,29.6827 105.521,28.8494 102.5,28C 102.833,27.6667 103.167,27.3333 103.5,27C 101.863,25.049 100.363,25.2157 99,27.5C 98.4257,25.508 97.259,24.008 95.5,23C 96.365,21.6412 97.365,20.4745 98.5,19.5C 102.221,20.9663 105.888,22.633 109.5,24.5C 112.368,21.0217 115.368,17.5217 118.5,14C 120.112,13.2797 121.612,13.4464 123,14.5C 123.36,16.6079 124.027,18.6079 125,20.5C 127.583,17.0026 129.916,13.3359 132,9.5C 132.735,13.8134 133.235,18.1467 133.5,22.5 Z"/></g>
<g><path style="opacity:0.086" fill="#78ba0c" d="M 157.5,13.5 C 157.5,23.8333 157.5,34.1667 157.5,44.5C 155.83,44.2488 154.33,43.5822 153,42.5C 151.312,44.0449 149.312,45.0449 147,45.5C 145.51,43.442 143.51,42.1087 141,41.5C 140.667,43.0468 141.167,44.3801 142.5,45.5C 141.502,48.0278 140.669,48.0278 140,45.5C 139.667,45.8333 139.333,46.1667 139,46.5C 137.649,44.9903 135.982,43.9903 134,43.5C 133.721,45.1198 132.888,46.4531 131.5,47.5C 131.167,47.5 130.833,47.5 130.5,47.5C 132.001,44.0984 130.834,41.765 127,40.5C 126.383,39.5509 126.549,38.7175 127.5,38C 126.584,37.6258 125.75,37.1258 125,36.5C 121.526,37.4544 118.026,37.9544 114.5,38C 115.047,37.0754 115.713,36.2421 116.5,35.5C 118.235,36.057 119.902,36.3903 121.5,36.5C 122.308,36.1924 122.975,35.6924 123.5,35C 122.069,34.5348 120.903,33.7014 120,32.5C 119.282,33.4506 118.449,33.6172 117.5,33C 119.572,30.8515 121.406,31.0182 123,33.5C 125.047,33.6319 127.213,33.4653 129.5,33C 125.517,35.2753 125.517,36.2753 129.5,36C 129.167,37 128.833,38 128.5,39C 130.764,39.2362 132.931,39.7362 135,40.5C 135.333,39.8333 135.667,39.1667 136,38.5C 136.739,39.5742 137.739,40.2409 139,40.5C 141.226,40.0216 143.392,39.355 145.5,38.5C 143.953,38.793 142.286,38.293 140.5,37C 141.672,36.5814 142.672,35.9147 143.5,35C 142.333,34.5 141.5,33.6667 141,32.5C 139.992,32.9817 138.825,33.1484 137.5,33C 139.962,34.8504 139.462,36.017 136,36.5C 136.077,35.2624 135.911,34.2624 135.5,33.5C 134.749,34.376 134.249,35.376 134,36.5C 132.207,33.7047 130.04,31.2047 127.5,29C 128.572,27.7163 129.905,27.3829 131.5,28C 130.944,25.7635 129.944,23.7635 128.5,22C 130.076,21.6124 131.409,22.1124 132.5,23.5C 131.674,24.451 131.508,25.451 132,26.5C 133.188,25.4366 133.688,24.1033 133.5,22.5C 136.784,23.7379 138.284,22.4045 138,18.5C 139.011,17.6634 140.178,17.33 141.5,17.5C 141.784,14.7462 142.451,12.0795 143.5,9.5C 146.016,16.301 147.683,15.9676 148.5,8.5C 149.675,8.28099 150.675,8.61432 151.5,9.5C 152.509,12.337 154.509,13.6703 157.5,13.5 Z"/></g>
<g><path style="opacity:0.059" fill="#7dbb24" d="M 1.5,20.5 C 3.73724,24.5344 5.40391,28.8677 6.5,33.5C 9.78453,33.7307 12.2845,32.3974 14,29.5C 14.5,30.5 15,31.5 15.5,32.5C 19.122,33.6586 22.7887,33.8253 26.5,33C 29.7902,30.3856 32.2902,27.2189 34,23.5C 37.285,26.4746 39.785,29.808 41.5,33.5C 44.3976,35.7725 44.0642,37.2725 40.5,38C 42.8098,38.4966 45.1432,38.6633 47.5,38.5C 47.5777,41.4867 46.411,42.1534 44,40.5C 42.1739,41.0104 42.0072,41.8438 43.5,43C 42.1011,43.5946 40.7678,43.4279 39.5,42.5C 36.5571,45.1804 36.8904,45.847 40.5,44.5C 41.6956,44.8457 41.6956,45.3457 40.5,46C 42.1667,46.6667 43.8333,46.6667 45.5,46C 43.1088,45.3086 43.1088,44.3086 45.5,43C 46.8333,42.6667 48.1667,42.3333 49.5,42C 49.0426,41.586 48.7093,41.086 48.5,40.5C 51.0119,39.2054 53.6786,38.5387 56.5,38.5C 56.238,37.0222 56.5713,35.6888 57.5,34.5C 57.2936,36.6102 58.1269,38.6102 60,40.5C 60.4828,39.552 60.6495,38.552 60.5,37.5C 61.8734,37.6567 63.2068,37.49 64.5,37C 63.5787,35.244 62.412,35.0773 61,36.5C 59.7425,36.1501 59.4092,35.4835 60,34.5C 60.3333,34.8333 60.6667,35.1667 61,35.5C 63.1119,34.7774 65.1119,33.7774 67,32.5C 69.0906,33.2563 70.924,34.423 72.5,36C 71.3318,37.4056 71.6652,38.5723 73.5,39.5C 69.9286,39.9734 69.2619,41.8067 71.5,45C 70.6195,45.7083 69.9528,46.5416 69.5,47.5C 69.5,47.8333 69.5,48.1667 69.5,48.5C 68.5,48.5 67.5,48.5 66.5,48.5C 66.1667,47.1667 65.8333,47.1667 65.5,48.5C 65.1667,48.5 64.8333,48.5 64.5,48.5C 64.1667,47.1667 63.8333,47.1667 63.5,48.5C 61.1667,48.5 58.8333,48.5 56.5,48.5C 56.1667,47.1667 55.8333,47.1667 55.5,48.5C 54.5,48.5 53.5,48.5 52.5,48.5C 52.1667,47.1667 51.8333,47.1667 51.5,48.5C 51.1667,48.5 50.8333,48.5 50.5,48.5C 49.8333,47.1667 49.1667,47.1667 48.5,48.5C 47.8333,48.5 47.1667,48.5 46.5,48.5C 46.1667,47.1667 45.8333,47.1667 45.5,48.5C 44.1667,48.5 42.8333,48.5 41.5,48.5C 41.1667,47.1667 40.8333,47.1667 40.5,48.5C 39.5,48.5 38.5,48.5 37.5,48.5C 37.1667,47.1667 36.8333,47.1667 36.5,48.5C 34.1667,48.5 31.8333,48.5 29.5,48.5C 28.8333,47.1667 28.1667,47.1667 27.5,48.5C 26.5,48.5 25.5,48.5 24.5,48.5C 24.1667,47.1667 23.8333,47.1667 23.5,48.5C 22.8333,48.5 22.1667,48.5 21.5,48.5C 21.5,47.8333 21.1667,47.5 20.5,47.5C 18.0984,46.6335 15.9317,45.3001 14,43.5C 13.6667,43.8333 13.3333,44.1667 13,44.5C 12.1667,43.5 11.3333,42.5 10.5,41.5C 10.1667,42 9.83333,42.5 9.5,43C 10.8932,44.3008 11.3932,45.8008 11,47.5C 8.88996,45.8755 6.55662,44.5421 4,43.5C 3.32924,44.2524 2.4959,44.5858 1.5,44.5C 1.5,36.5 1.5,28.5 1.5,20.5 Z"/></g>
<g><path style="opacity:0.059" fill="#78bb0e" d="M 59.5,18.5 C 62.8005,18.5334 66.1338,18.7001 69.5,19C 67.9386,19.941 66.6053,21.1076 65.5,22.5C 67.0778,23.0724 68.5778,23.4057 70,23.5C 70.6667,25.5 71.3333,27.5 72,29.5C 73.0616,28.1007 74.395,27.1007 76,26.5C 78.1953,26.6381 80.362,26.6381 82.5,26.5C 83.5827,27.365 83.7494,28.365 83,29.5C 82.2825,28.5494 81.4491,28.3828 80.5,29C 81.6651,30.0836 82.9984,30.9169 84.5,31.5C 84.6691,30.6034 85.0024,29.6034 85.5,28.5C 86.9626,28.6322 88.4626,28.9655 90,29.5C 91.0567,28.3726 92.2234,27.8726 93.5,28C 92.3659,29.016 92.6992,29.6827 94.5,30C 92.913,30.8624 91.2464,31.5291 89.5,32C 89.8333,32.3333 90.1667,32.6667 90.5,33C 89.6433,33.6891 88.9767,34.5224 88.5,35.5C 90.0864,36.6599 92.0864,36.8266 94.5,36C 93.944,36.3826 93.6107,36.8826 93.5,37.5C 90.9208,37.9167 88.7542,37.25 87,35.5C 86.6924,36.3081 86.1924,36.9747 85.5,37.5C 85.1667,36.8333 84.8333,36.1667 84.5,35.5C 83.293,37.5411 81.6263,38.8745 79.5,39.5C 77.8457,41.5814 75.8457,43.0814 73.5,44C 73.8333,44.3333 74.1667,44.6667 74.5,45C 72.5743,45.4224 71.5743,46.5891 71.5,48.5C 71.1667,48.5 70.8333,48.5 70.5,48.5C 70.5,47.8333 70.1667,47.5 69.5,47.5C 69.9528,46.5416 70.6195,45.7083 71.5,45C 69.2619,41.8067 69.9286,39.9734 73.5,39.5C 71.6652,38.5723 71.3318,37.4056 72.5,36C 70.924,34.423 69.0906,33.2563 67,32.5C 65.1119,33.7774 63.1119,34.7774 61,35.5C 60.6667,35.1667 60.3333,34.8333 60,34.5C 59.4092,35.4835 59.7425,36.1501 61,36.5C 62.412,35.0773 63.5787,35.244 64.5,37C 63.2068,37.49 61.8734,37.6567 60.5,37.5C 60.6495,38.552 60.4828,39.552 60,40.5C 58.1269,38.6102 57.2936,36.6102 57.5,34.5C 56.5713,35.6888 56.238,37.0222 56.5,38.5C 53.6786,38.5387 51.0119,39.2054 48.5,40.5C 48.7093,41.086 49.0426,41.586 49.5,42C 48.1667,42.3333 46.8333,42.6667 45.5,43C 43.1088,44.3086 43.1088,45.3086 45.5,46C 43.8333,46.6667 42.1667,46.6667 40.5,46C 41.6956,45.3457 41.6956,44.8457 40.5,44.5C 36.8904,45.847 36.5571,45.1804 39.5,42.5C 40.7678,43.4279 42.1011,43.5946 43.5,43C 42.0072,41.8438 42.1739,41.0104 44,40.5C 46.411,42.1534 47.5777,41.4867 47.5,38.5C 45.1432,38.6633 42.8098,38.4966 40.5,38C 44.0642,37.2725 44.3976,35.7725 41.5,33.5C 43.4672,33.7394 45.3005,33.4061 47,32.5C 47.8811,28.6244 49.2145,24.9577 51,21.5C 51.3333,22.1667 51.6667,22.8333 52,23.5C 52.4186,22.3279 53.0853,21.3279 54,20.5C 54.5112,22.8782 55.1779,25.2115 56,27.5C 57.6636,24.6729 58.8303,21.6729 59.5,18.5 Z"/></g>
<g><path style="opacity:0.016" fill="#8ab250" d="M 79.5,39.5 C 80.8846,40.5736 82.0513,41.9069 83,43.5C 84.0113,42.6634 85.1779,42.33 86.5,42.5C 86.4125,45.5983 86.9125,45.9316 88,43.5C 90.0265,45.897 92.1932,47.2303 94.5,47.5C 94.5,47.8333 94.5,48.1667 94.5,48.5C 90.1667,48.5 85.8333,48.5 81.5,48.5C 81.1667,47.1667 80.8333,47.1667 80.5,48.5C 79.5,48.5 78.5,48.5 77.5,48.5C 76.5,47.1667 75.5,47.1667 74.5,48.5C 74.1667,48.5 73.8333,48.5 73.5,48.5C 73.1667,47.1667 72.8333,47.1667 72.5,48.5C 72.1667,48.5 71.8333,48.5 71.5,48.5C 71.5743,46.5891 72.5743,45.4224 74.5,45C 74.1667,44.6667 73.8333,44.3333 73.5,44C 75.8457,43.0814 77.8457,41.5814 79.5,39.5 Z"/></g>
<g><path style="opacity:0.016" fill="#92bf60" d="M 157.5,44.5 C 157.5,45.8333 157.5,47.1667 157.5,48.5C 156.167,48.5 154.833,48.5 153.5,48.5C 152.833,47.1667 152.167,47.1667 151.5,48.5C 150.833,48.5 150.167,48.5 149.5,48.5C 149.167,47.1667 148.833,47.1667 148.5,48.5C 147.833,48.5 147.167,48.5 146.5,48.5C 146.167,47.1667 145.833,47.1667 145.5,48.5C 144.833,48.5 144.167,48.5 143.5,48.5C 143.167,47.1667 142.833,47.1667 142.5,48.5C 141.5,48.5 140.5,48.5 139.5,48.5C 138.5,47.1667 137.5,47.1667 136.5,48.5C 135.5,48.5 134.5,48.5 133.5,48.5C 133.167,47.1667 132.833,47.1667 132.5,48.5C 132.167,48.5 131.833,48.5 131.5,48.5C 131.5,48.1667 131.5,47.8333 131.5,47.5C 132.888,46.4531 133.721,45.1198 134,43.5C 135.982,43.9903 137.649,44.9903 139,46.5C 139.333,46.1667 139.667,45.8333 140,45.5C 140.669,48.0278 141.502,48.0278 142.5,45.5C 141.167,44.3801 140.667,43.0468 141,41.5C 143.51,42.1087 145.51,43.442 147,45.5C 149.312,45.0449 151.312,44.0449 153,42.5C 154.33,43.5822 155.83,44.2488 157.5,44.5 Z"/></g>
<g><path style="opacity:0.016" fill="#9ac371" d="M 20.5,47.5 C 19.8333,47.5 19.5,47.8333 19.5,48.5C 18.8333,48.5 18.1667,48.5 17.5,48.5C 17.1667,47.1667 16.8333,47.1667 16.5,48.5C 15.8333,48.5 15.1667,48.5 14.5,48.5C 13.8333,47.1667 13.1667,47.1667 12.5,48.5C 11.5,48.5 10.5,48.5 9.5,48.5C 9.16667,47.1667 8.83333,47.1667 8.5,48.5C 8.16667,48.5 7.83333,48.5 7.5,48.5C 7.16667,47.1667 6.83333,47.1667 6.5,48.5C 4.83333,48.5 3.16667,48.5 1.5,48.5C 1.5,47.1667 1.5,45.8333 1.5,44.5C 2.4959,44.5858 3.32924,44.2524 4,43.5C 6.55662,44.5421 8.88996,45.8755 11,47.5C 11.3932,45.8008 10.8932,44.3008 9.5,43C 9.83333,42.5 10.1667,42 10.5,41.5C 11.3333,42.5 12.1667,43.5 13,44.5C 13.3333,44.1667 13.6667,43.8333 14,43.5C 15.9317,45.3001 18.0984,46.6335 20.5,47.5 Z"/></g>
<g><path style="opacity:0.004" fill="#cac4e6" d="M 121.5,48.5 C 121.167,48.5 120.833,48.5 120.5,48.5C 119.833,47.1667 119.167,47.1667 118.5,48.5C 115.5,48.5 112.5,48.5 109.5,48.5C 109.5,48.1667 109.5,47.8333 109.5,47.5C 111.46,46.8617 113.293,46.8617 115,47.5C 117.897,44.6398 120.064,44.9731 121.5,48.5 Z"/></g>
</svg>
